#N canvas 483 556 474 486 10;
#X obj 7 112 py4pd -lib py4pd-spt;
#N canvas 0 50 450 250 (subpatch) 0;
#X array samples 281650 float 4;
#X coords 0 1 281649 -1 139 48 1 0 0;
#X restore 263 124 graph;
#X obj 6 18 py4pd -lib py4pd;
#X obj 93 222 loadbang;
#X obj 93 282 soundfiler;
#X msg 7 153 samples;
#X obj 7 250 dac~;
#N canvas 6 556 471 486 spearSynth 1;
#X obj 5 5 inlet;
#X obj 5 78 outlet~;
#X msg 46 27 reload;
#X obj 84 55 block~ 1024;
#X obj 5 55 spt.synth~;
#X connect 0 0 4 0;
#X connect 2 0 4 0;
#X connect 4 0 1 0;
#X restore 7 222 pd spearSynth;
#X obj 302 217 bng 25 250 50 0 empty empty empty 17 7 0 10 #e4e4e4 #000000 #373737;
#X obj 302 277 dac~;
#X obj 302 253 tabplay~ samples;
#X msg 93 253 read -resize ../flute.wav samples;
#X obj 7 178 spt.stft;
#X obj 7 201 spt.pt-live;
#X msg 6 46 install py4pd-spt;
#X obj 6 68 py4pd.libs;
#X text 120 17 Adiciona o objeto py4pd.libs;
#X text 120 45 Install a biblioteca py4pd-spt.;
#X text 120 70 !! APÓS INSTALAÇÃO É NECESSÁRIO REINICIAR O PureData. !!, f 31;
#N canvas 0 50 450 250 (subpatch) 0;
#X coords 0 1 100 -1 308 92 1;
#X restore 3 7 graph;
#N canvas 0 50 450 250 (subpatch) 0;
#X coords 0 1 100 -1 403 196 1;
#X restore 4 107 graph;
#X text 58 151 1 Cálcula o Partial Tracking;
#X connect 3 0 11 0;
#X connect 5 0 12 0;
#X connect 7 0 6 0;
#X connect 7 0 6 1;
#X connect 8 0 10 0;
#X connect 10 0 9 0;
#X connect 10 0 9 1;
#X connect 11 0 4 0;
#X connect 12 0 13 0;
#X connect 13 0 7 0;
#X connect 14 0 15 0;
